<svg width="14" height="13" viewBox="0 0 14 13" fill="none" xmlns="http://www.w3.org/2000/svg">
<path fill-rule="evenodd" clip-rule="evenodd" d="M2.33329 1.0675H11.6666C12.311 1.0675 12.8333 1.54545 12.8333 2.13503V10.6752C12.8333 11.2648 12.311 11.7428 11.6666 11.7428H2.33329C1.68896 11.7428 1.16663 11.2648 1.16663 10.6752V2.13503C1.16663 1.54545 1.68896 1.0675 2.33329 1.0675ZM2.33329 2.13503V10.6752H11.6666V2.13503H2.33329ZM7.58329 4.80384C7.28127 4.80384 6.96219 4.88831 6.68038 5.04518L6.41663 4.80384H5.83329V8.54018H6.99996V6.40513C6.99996 6.09782 7.34643 5.87137 7.58329 5.87137H8.16663C8.40349 5.87137 8.74996 6.09782 8.74996 6.40513V8.54018H9.91663V6.40513C9.91663 5.41616 8.97976 4.80384 8.16663 4.80384H7.58329ZM4.66663 4.27008C4.98879 4.27008 5.24996 4.03111 5.24996 3.73632C5.24996 3.44153 4.98879 3.20256 4.66663 3.20256C4.34446 3.20256 4.08329 3.44153 4.08329 3.73632C4.08329 4.03111 4.34446 4.27008 4.66663 4.27008ZM4.08329 8.54018H5.24996V4.80384H4.08329V8.54018Z" fill="#283E53"/>
</svg>
