<svg width="14" height="13" viewBox="0 0 14 13" fill="none" xmlns="http://www.w3.org/2000/svg">
<g id="24 / symbols / facebook">
<path id="icon" fill-rule="evenodd" clip-rule="evenodd" d="M2.33329 1.0675H11.6666C12.311 1.0675 12.8333 1.54545 12.8333 2.13503V10.6752C12.8333 11.2648 12.311 11.7428 11.6666 11.7428H2.33329C1.68896 11.7428 1.16663 11.2648 1.16663 10.6752V2.13503C1.16663 1.54545 1.68896 1.0675 2.33329 1.0675ZM2.33329 2.13503V10.6752H11.6666V2.13503H2.33329ZM6.49424 6.40748H7.58329V9.60771H8.74996V6.40748H9.90637V5.33995H8.74996V4.80384C8.74996 4.50905 9.01113 4.27008 9.33329 4.27008H9.91663V3.20256H9.33329C8.36679 3.20256 7.58329 3.91948 7.58329 4.80384V5.33995H6.49424V6.40748Z" fill="#283E53"/>
</g>
</svg>
