<svg width="14" height="13" viewBox="0 0 14 13" fill="none" xmlns="http://www.w3.org/2000/svg">
<path fill-rule="evenodd" clip-rule="evenodd" d="M9.33329 1.0675H4.66663C2.73363 1.0675 1.16663 2.50135 1.16663 4.27008V8.54018C1.16663 10.3089 2.73363 11.7428 4.66663 11.7428H9.33329C11.2663 11.7428 12.8333 10.3089 12.8333 8.54018V4.27008C12.8333 2.50135 11.2663 1.0675 9.33329 1.0675ZM2.33329 4.27008C2.33329 3.09092 3.37796 2.13503 4.66663 2.13503H9.33329C10.622 2.13503 11.6666 3.09092 11.6666 4.27008V8.54018C11.6666 9.71934 10.622 10.6752 9.33329 10.6752H4.66663C3.37796 10.6752 2.33329 9.71934 2.33329 8.54018V4.27008ZM6.99996 9.07394C5.38913 9.07394 4.08329 7.87908 4.08329 6.40513C4.08329 4.93119 5.38913 3.73632 6.99996 3.73632C8.61079 3.73632 9.91663 4.93119 9.91663 6.40513C9.91663 7.87908 8.61079 9.07394 6.99996 9.07394ZM6.99996 8.00642C7.96646 8.00642 8.74996 7.2895 8.74996 6.40513C8.74996 5.52076 7.96646 4.80384 6.99996 4.80384C6.03346 4.80384 5.24996 5.52076 5.24996 6.40513C5.24996 7.2895 6.03346 8.00642 6.99996 8.00642ZM10.5 3.73632C10.5 4.03111 10.2388 4.27008 9.91663 4.27008C9.59446 4.27008 9.33329 4.03111 9.33329 3.73632C9.33329 3.44153 9.59446 3.20256 9.91663 3.20256C10.2388 3.20256 10.5 3.44153 10.5 3.73632Z" fill="#283E53"/>
</svg>
