<svg width="14" height="13" viewBox="0 0 14 13" fill="none" xmlns="http://www.w3.org/2000/svg">
<path fill-rule="evenodd" clip-rule="evenodd" d="M12.3197 2.40633L13.145 2.49452L12.774 3.1748C12.5931 3.50655 12.412 3.83829 12.2307 4.17004C12.2092 4.24031 12.1715 4.3019 12.1156 4.3821C12.0922 4.41561 12.0125 4.52221 12.0088 4.52732C11.9877 4.55622 11.9721 4.57901 11.9609 4.59727V5.87218C11.9609 9.13453 8.51051 11.2076 5.25202 11.2076C4.58526 11.2076 4.07867 11.1784 3.49859 11.0626C2.54396 10.8719 1.83354 10.493 1.50844 9.83081L1.17375 9.14903L1.98714 9.08058C2.72296 9.01866 3.36094 8.8904 3.85088 8.71863C2.50582 8.5207 1.75206 7.98015 1.75206 6.96499V6.43122H2.33539C2.46356 6.43122 2.57912 6.42171 2.68244 6.40425C1.67296 5.85196 1.16734 4.966 1.16734 3.73713C1.16723 3.68475 1.16723 3.68475 1.16688 3.62875C1.16309 3.00935 1.19945 2.67838 1.38476 2.25598C1.50353 1.98526 1.67519 1.73465 1.90623 1.50501L2.34642 1.0675L2.77439 1.51505C4.18476 2.98991 5.57893 3.88468 7.00239 3.99291C7.00848 2.63199 8.13252 1.60208 9.62749 1.60208C10.3244 1.60208 10.9566 1.84414 11.4534 2.2806C11.7253 2.33173 12.0141 2.37367 12.3197 2.40633ZM11.03 3.28903L10.8512 3.25198L10.7277 3.12798C10.4291 2.82815 10.0543 2.66961 9.62749 2.66961C8.77409 2.66961 8.16903 3.22599 8.16903 4.00401C8.16903 4.13116 8.16544 4.21106 8.14813 4.31606C8.07906 4.73508 7.82221 5.07154 7.29402 5.07154C5.54516 5.07154 3.96742 4.21426 2.4289 2.75007C2.34958 2.97069 2.33093 3.19747 2.33353 3.62277C2.33388 3.67965 2.33388 3.67965 2.33401 3.73713C2.33401 4.83028 2.818 5.42822 3.96398 5.76151L4.37062 5.87978V6.2702C4.37062 6.74364 3.88042 7.18931 3.16319 7.38893C3.49198 7.61718 4.16438 7.74035 5.25223 7.74035H5.83556V8.27411C5.83556 9.03886 4.87524 9.63763 3.42456 9.95031C3.89766 10.0829 4.52759 10.1401 5.25202 10.1401C7.94377 10.1401 10.7943 8.42746 10.7943 5.87218V4.53777C10.7943 4.38096 10.8439 4.24485 10.9265 4.10333C10.9587 4.048 10.9943 3.99524 11.0381 3.93508C11.0464 3.92375 11.077 3.88271 11.1013 3.8499L11.1475 3.76529C11.2224 3.6282 11.2973 3.49111 11.3722 3.35402C11.2559 3.33386 11.1418 3.3122 11.03 3.28903Z" fill="#283E53"/>
</svg>
